<svg xmlns="http://www.w3.org/2000/svg" xmlns:xlink="http://www.w3.org/1999/xlink" aria-hidden="true" role="img" class="iconify iconify--ph" width="32" height="32" preserveAspectRatio="xMidYMid meet" viewBox="0 0 256 256"><path d="M128 82a46 46 0 1 0 46 46a46 46 0 0 0-46-46zm0 80a34 34 0 1 1 34-34a34.1 34.1 0 0 1-34 34zm44-132H84a54 54 0 0 0-54 54v88a54 54 0 0 0 54 54h88a54 54 0 0 0 54-54V84a54 54 0 0 0-54-54zm42 142a42 42 0 0 1-42 42H84a42 42 0 0 1-42-42V84a42 42 0 0 1 42-42h88a42 42 0 0 1 42 42zm-24-96a10 10 0 1 1-10-10a10 10 0 0 1 10 10z" fill="#e1eaf3"></path></svg>